<?xml version="1.0" encoding="utf-8"?>
<!-- Generator: Adobe Illustrator 20.1.0, SVG Export Plug-In . SVG Version: 6.00 Build 0)  -->
<svg version="1.1" id="Layer_1" xmlns="http://www.w3.org/2000/svg" xmlns:xlink="http://www.w3.org/1999/xlink" x="0px" y="0px"
	 viewBox="0 0 22 44" style="enable-background:new 0 0 22 44;" xml:space="preserve">
<style type="text/css">
	.st0{fill-rule:evenodd;clip-rule:evenodd;fill:#7EA53F;}
	.st1{fill-rule:evenodd;clip-rule:evenodd;fill:#52656B;}
</style>
<path class="st0" d="M8.5,24.8c3.2,0,5.9,2.7,5.9,6.1c0,1.1-0.3,2.2-0.9,3.2L13,34.9l-0.7,0.6c-1.1,0.9-2.3,1.4-3.7,1.4
	c-3.2,0-5.8-2.7-5.8-6.1C2.7,27.5,5.3,24.8,8.5,24.8L8.5,24.8z M8.5,22.1c-4.7,0-8.4,3.9-8.4,8.8s3.8,8.7,8.4,8.7c2,0,3.9-0.7,5.3-2
	c0.1,0.1,0.1,0.2,0.2,0.4l5.3,5.5c0.3,0.3,0.7,0.5,1,0.5c0.4,0,0.8-0.2,1.1-0.5c0.6-0.6,0.6-1.6,0-2.2l-5.3-5.5
	c-0.1-0.1-0.3-0.3-0.5-0.3c0.8-1.3,1.3-2.9,1.3-4.6C17,26,13.2,22.1,8.5,22.1L8.5,22.1z"/>
<path class="st1" d="M8.5,2.9c3.2,0,5.9,2.7,5.9,6.1c0,1.1-0.3,2.2-0.9,3.2L13,13l-0.7,0.6C11.2,14.5,9.9,15,8.5,15
	c-3.2,0-5.8-2.7-5.8-6.1C2.7,5.6,5.3,2.9,8.5,2.9L8.5,2.9z M8.5,0.2c-4.7,0-8.4,3.9-8.4,8.8s3.8,8.7,8.4,8.7c2,0,3.9-0.7,5.3-2
	c0.1,0.1,0.1,0.2,0.2,0.4l5.3,5.5c0.3,0.3,0.7,0.5,1,0.5c0.4,0,0.8-0.2,1.1-0.5c0.6-0.6,0.6-1.6,0-2.2l-5.3-5.5
	c-0.1-0.1-0.3-0.3-0.5-0.3c0.8-1.3,1.3-2.9,1.3-4.6C17,4.1,13.2,0.2,8.5,0.2L8.5,0.2z"/>
</svg>
