<?xml version="1.0" encoding="utf-8"?>
<!-- Generator: Adobe Illustrator 20.1.0, SVG Export Plug-In . SVG Version: 6.00 Build 0)  -->
<svg version="1.1" id="Layer_1" xmlns="http://www.w3.org/2000/svg" xmlns:xlink="http://www.w3.org/1999/xlink" x="0px" y="0px"
	 viewBox="0 0 48 192" style="enable-background:new 0 0 48 192;" xml:space="preserve">
<style type="text/css">
	.st0{fill-rule:evenodd;clip-rule:evenodd;fill:#5278B5;}
	.st1{fill-rule:evenodd;clip-rule:evenodd;fill:#FFFFFF;}
	.st2{fill-rule:evenodd;clip-rule:evenodd;fill:#CB342B;}
	.st3{fill-rule:evenodd;clip-rule:evenodd;fill:#4A719D;}
	.st4{fill-rule:evenodd;clip-rule:evenodd;fill:#519DD6;}
	.st5{fill:#FFFFFF;}
</style>
<g>
	<path class="st0" d="M3.3,0h41.5C46.5,0,48,1.5,48,3.3v41.5c0,1.8-1.5,3.3-3.3,3.3H3.3C1.5,48,0,46.5,0,44.7V3.3C0,1.5,1.5,0,3.3,0
		z"/>
	<path class="st1" d="M36,10.9v5.5h-3.3c0,0-1.1,0-1.1,1.1v2.2H36l-1.1,5.5l-3.3,0v12h-5.5v-12h-3.3v-5.5h3.3l0.3-3.6
		c0,0-0.5-5.1,4.8-5.1S36,10.9,36,10.9z"/>
</g>
<g>
	<path class="st2" d="M3.3,144h41.5c1.8,0,3.3,1.5,3.3,3.3v41.5c0,1.8-1.5,3.3-3.3,3.3H3.3c-1.8,0-3.3-1.5-3.3-3.3v-41.5
		C0,145.5,1.5,144,3.3,144z"/>
	<path class="st1" d="M31.6,169.7l-13.9,9.6c-1.1,0.7-2.4,0.1-2.4-1.3v-1.1h0v-14.9h0v-2.8c0-1.4,1.3-2.1,2.4-1.4l13.9,9.3
		C32.7,167.9,32.7,169,31.6,169.7z"/>
</g>
<g>
	<path class="st3" d="M3.3,96h41.5c1.8,0,3.3,1.5,3.3,3.3v41.5c0,1.8-1.5,3.3-3.3,3.3H3.3c-1.8,0-3.3-1.5-3.3-3.3V99.3
		C0,97.5,1.5,96,3.3,96z"/>
	<path class="st1" d="M34.9,111.3c0-1.2-1-2.2-2.2-2.2h-1.1c-1.2,0-2.2,1-2.2,2.2v1.1c0,1.2,1,2.2,2.2,2.2h1.1c1.2,0,2.2-1,2.2-2.2
		V111.3z M24,127.6c-4.2,0-7.6-3.4-7.6-7.6c0-1.2,0.3-2.3,0.8-3.3h-2.9v13.1h19.6v-13.1h-2.9c0.5,1,0.8,2.1,0.8,3.3
		C31.6,124.2,28.2,127.6,24,127.6z M24,115.6c-2.4,0-4.4,2-4.4,4.4s2,4.4,4.4,4.4s4.4-2,4.4-4.4S26.4,115.6,24,115.6z M35.5,133.1
		H12.5c-0.9,0-1.6-0.7-1.6-1.6v-23.1c0-0.9,0.7-1.6,1.6-1.6h23.1c0.9,0,1.6,0.7,1.6,1.6v23.1C37.1,132.4,36.4,133.1,35.5,133.1z"/>
</g>
<g>
	<path class="st4" d="M3.3,48h41.5c1.8,0,3.3,1.5,3.3,3.3v41.5c0,1.8-1.5,3.3-3.3,3.3H3.3C1.5,96,0,94.5,0,92.7V51.3
		C0,49.5,1.5,48,3.3,48z"/>
	<path class="st5" d="M39.4,63c-1.1,0.5-2.2,0.9-3.5,1c1.2-0.8,2.2-2,2.7-3.5c-1.2,0.7-2.5,1.2-3.8,1.5c-1.1-1.2-2.7-2-4.4-2
		c-3.3,0-6,2.8-6,6.3c0,0.5,0.1,1,0.2,1.4c-5-0.3-9.5-2.8-12.5-6.6c-0.5,0.9-0.8,2-0.8,3.2c0,2.2,1.1,4.1,2.7,5.3
		c-1,0-1.9-0.3-2.7-0.8v0.1c0,3.1,2.1,5.6,4.9,6.2c-0.5,0.2-1,0.2-1.6,0.2c-0.4,0-0.8,0-1.1-0.1c0.8,2.5,3,4.4,5.6,4.4
		c-2.1,1.7-4.7,2.7-7.5,2.7c-0.5,0-1,0-1.4-0.1c2.7,1.8,5.8,2.8,9.3,2.8c11.1,0,17.2-9.7,17.2-18c0-0.3,0-0.5,0-0.8
		C37.6,65.4,38.6,64.2,39.4,63z"/>
</g>
</svg>
